<svg xmlns="http://www.w3.org/2000/svg" width="201" height="12" viewBox="0 0 201 12">
  <path fill="none" stroke="#1A1F30" stroke-linecap="round" d="M200.273443,4.1452777 C186.951436,3.56561354 175.038537,3.1872905 164.534744,3.01030858 C140.177919,2.59991229 94.5977271,2.7976255 82.1371873,3.01030858 C34.2841295,3.82708986 -10.978826,6.24607926 3.73793022,6.68544666 C34.5129212,7.60423118 98.4333587,6.34972189 127.803303,6.68544666 C147.868986,6.91481539 154.491461,9.37480494 171.306272,8.5230157 C184.759074,7.84153608 182.21657,6.64352964 162.54926,6.68544666 C136.307111,6.74137666 94.9684354,8.65404396 67.594228,8.65404396 C52.3443091,8.65404396 -17.859725,9.65102552 4.70333912,9.44180022 C21.6168737,9.28496251 63.5992922,10.2659907 67.2460627,10.3605847 C108.614452,11.4336442 183.927507,10.9200554 188.360543,10.3605847 C210.200859,7.60423118 145.151105,4.87019933 137.860376,4.6554475 C99.5877976,3.52811092 34.8401459,3.68276156 23.5654303,3.9290931 C-11.1899371,4.68843316 79.9206114,8.27347293 103.977503,9.44180022 C128.536205,10.634498 142.694428,11.7387615 168.50571,10.3605847 C183.39715,9.56546591 200.84465,9.77869682 198.301626,8.5230157 C190.149445,4.49767482 168.14679,4.86183798 155.600069,3.9290931 C136.337014,2.49704439 128.330078,2.77832063 59.3041295,1.17273954 C46.5694956,0.876525034 32.984224,1.01910068 21.5799471,1.17273954"/>
</svg>
