<svg xmlns="http://www.w3.org/2000/svg" width="200" height="5" viewBox="0 0 200 5">
  <path fill="#1A2030" fill-opacity=".85" d="M0.739782438,15.8687627 L2.58334274,15.7157033 L4.42637911,15.5727085 L6.37459274,15.4322937 C17.1091096,14.6886975 28.2304937,14.4159607 43.0911379,14.4931243 L50.2121884,14.5527997 L56.7542587,14.6393884 C60.6051519,14.6975444 64.8869321,14.7734116 69.950621,14.8717876 L115.234905,15.7903624 C133.007216,16.3418433 147.973962,16.7161448 160.135144,16.9132669 C178.376917,17.20895 186.132104,16.652337 192.567569,16.6699486 C199.003034,16.6875603 200,16.8175982 200,16.4816474 C200,16.1456966 199.699542,15.8725268 199.326378,15.8715056 L191.058939,15.8089472 L178.76062,15.6532968 C166.155145,15.4747919 148.93361,15.1876017 127.097046,14.7917335 C127.413946,14.8009645 119.958181,14.4943164 104.729752,13.8717889 C89.5013229,13.2492615 77.6404081,12.7662575 69.1470075,12.4227768 L56.9829459,12.2094982 C54.1653311,12.1666566 51.5794613,12.1332561 49.0896504,12.1074432 L44.2876094,12.0668266 L41.7335738,12.0538202 C26.6273394,11.9965444 21.1976102,11.8269432 10.1351795,12.6551978 C9.28933484,12.7185269 5.94472449,13.2981503 3.37842433,13.8717889 C2.19946585,14.1353186 1.0004616,14.6243157 0.611662073,14.6576517 C0.240177722,14.689503 -0.0322891249,14.98644 0.00309033705,15.3208791 C0.038469799,15.6553182 0.368298088,15.900614 0.739782438,15.8687627 Z" transform="translate(0 -12)"/>
</svg>
